<svg xmlns="http://www.w3.org/2000/svg" xmlns:xlink="http://www.w3.org/1999/xlink" viewBox="0 0 1547.19 509.94"><defs><style>.cls-1{fill:url(#linear-gradient);}.cls-2{fill:#283242;}.cls-3{fill:#ff004f;}</style><linearGradient id="linear-gradient" x1="-31.07" y1="471.76" x2="333.49" y2="52.38" gradientUnits="userSpaceOnUse"><stop offset="0" stop-color="#ff0046"/><stop offset="0.72" stop-color="#ff0053"/></linearGradient></defs><title>BotXO_logo_blue_red</title><g id="Layer_2" data-name="Layer 2"><g id="Layer_1-2" data-name="Layer 1"><path class="cls-1" d="M291.11,204a22.17,22.17,0,0,0-22.17,22.17v57.64A22.17,22.17,0,0,0,291.11,306h91.77a20.53,20.53,0,0,1,20.53,20.53v60.93A20.53,20.53,0,0,1,382.88,408H291.11a22.18,22.18,0,0,0-22.17,22.17v59.29a20.53,20.53,0,0,1-20.53,20.53H20.53A20.53,20.53,0,0,1,0,489.41V428.48A20.53,20.53,0,0,1,20.53,408H246.77a22.18,22.18,0,0,0,22.17-22.17V328.13A22.17,22.17,0,0,0,246.77,306H20.53A20.53,20.53,0,0,1,0,285.43V224.5A20.53,20.53,0,0,1,20.53,204H246.77a22.17,22.17,0,0,0,22.17-22.16V124.16A22.16,22.16,0,0,0,246.78,102H20.53A20.53,20.53,0,0,1,0,81.46V20.53A20.53,20.53,0,0,1,20.53,0H248.41a20.53,20.53,0,0,1,20.53,20.53V79.82A22.18,22.18,0,0,0,291.11,102h91.77a20.53,20.53,0,0,1,20.53,20.53v60.93A20.53,20.53,0,0,1,382.88,204Z"/><path class="cls-2" d="M754.69,198.5c0,16.75-8.38,36.93-19.42,48-2.29,2.29-2.29,4.95,0,6.86,12.56,10.66,22.46,32.37,22.46,51.78,0,49.88-31.22,82.25-78.05,82.25H589.81a7.64,7.64,0,0,1-7.61-7.62V128.43a7.65,7.65,0,0,1,7.61-7.62h89.87C722.32,120.81,754.69,155.47,754.69,198.5Zm-76.92,24.74c13.33,0,25.13-11.42,25.13-24.74s-11.8-24.37-25.13-24.37h-39.6a3.6,3.6,0,0,0-3.81,3.8v41.51a3.6,3.6,0,0,0,3.81,3.8Zm-39.6,53.31a3.61,3.61,0,0,0-3.81,3.81v49.88a3.61,3.61,0,0,0,3.81,3.81h39.6c16.37,0,26.66-13.7,26.66-28.94,0-14.85-10.67-28.56-26.66-28.56Z"/><path class="cls-2" d="M784.75,263.61c5-40,32.36-70.82,78.82-70.82,46.83,0,74.25,30.83,79.2,70.82,1.9,15.23,1.9,41.89,0,57.11-4.95,40-32.37,70.82-78.82,70.82-46.84,0-74.25-30.83-79.2-70.82C782.85,305.5,782.85,278.84,784.75,263.61Zm49.5,57.11c1.9,13.33,10.28,21.33,29.32,21.33,19.42,0,27.79-8.76,29.7-21.33,2.28-15.22,2.28-41.88,0-57.11-1.91-12.57-10.28-21.32-29.7-21.32-19,0-27,6.85-29.32,21.32C832,278.84,832,305.5,834.25,320.72Z"/><path class="cls-2" d="M1090.87,198.12a7.64,7.64,0,0,1,7.62,7.61v30.46a7.64,7.64,0,0,1-7.62,7.62H1049a3.59,3.59,0,0,0-3.81,3.8v69.31c0,12.56,9.14,22.85,22.84,22.85h26.66a7.62,7.62,0,0,1,7.61,7.6v32.37a7.64,7.64,0,0,1-7.61,7.62H1068c-43.4,0-72.34-26.27-72.34-69.68V247.61a3.59,3.59,0,0,0-3.81-3.8h-29.7a7.64,7.64,0,0,1-7.61-7.62V205.73a7.63,7.63,0,0,1,7.61-7.61h29.7a3.6,3.6,0,0,0,3.81-3.81V136.05a7.64,7.64,0,0,1,7.61-7.62h34.27a7.64,7.64,0,0,1,7.62,7.62v58.26a3.6,3.6,0,0,0,3.81,3.81Z"/><path class="cls-3" d="M1202,381.64a7.94,7.94,0,0,1-8,5.72h-44.93c-4.95,0-8.37-5.33-6.09-10.67l56-126.79c1.53-3.43,1.53-4.57,0-8.38l-49.5-110c-2.28-5.33,1.15-10.67,6.1-10.67h43c3.43,0,5.33,1.53,7.24,5.72l31.6,78.82a2.38,2.38,0,0,0,4.57,0l31.61-78.82c1.9-4.19,3.8-5.72,7.23-5.72h43c4.95,0,8.37,5.34,6.09,10.67l-49.5,110.43c-1.52,3.8-1.52,5,0,8.37l56,126.41c2.29,5.34-1.14,10.67-6.09,10.67h-44.93a8,8,0,0,1-8-5.72L1242,291.4a2.38,2.38,0,0,0-4.57,0Z"/><path class="cls-3" d="M1544.34,200.78c3.8,32,3.8,74.63,0,106.62-5.34,45.69-38.08,84.14-90.63,84.14s-85.29-38.45-90.62-84.14c-3.81-32-3.81-74.64,0-106.62,5.33-45.7,38.08-84.15,90.62-84.15S1539,155.08,1544.34,200.78ZM1490.65,307.4c3.8-32,3.8-74.64,0-106.62-1.91-16.76-13.71-30.46-36.94-30.46s-35,13.7-36.93,30.46c-3.81,32-3.81,74.63,0,106.62,1.9,16.75,13.7,30.46,36.93,30.46S1488.74,324.15,1490.65,307.4Z"/></g></g></svg>