<svg id="document" xmlns="http://www.w3.org/2000/svg" width="67.33" height="67.33" viewBox="0 0 67.33 67.33">
  <path id="Path_92642" data-name="Path 92642" d="M62.321,21H46.032V54.665a5.43,5.43,0,0,1-5.43,5.43H33v3.258a3.258,3.258,0,0,0,3.258,3.258H62.321a3.258,3.258,0,0,0,3.258-3.258V24.258A3.258,3.258,0,0,0,62.321,21Z" transform="translate(1.751 0.719)" fill="#125cfb"/>
  <path id="Path_92643" data-name="Path 92643" d="M45.579,55.353V16.258A3.258,3.258,0,0,0,42.321,13H16.258A3.258,3.258,0,0,0,13,16.258V55.353a3.258,3.258,0,0,0,3.258,3.258H42.321A3.258,3.258,0,0,0,45.579,55.353ZM38.748,44.178,34.4,48.522a1.086,1.086,0,0,1-1.26.2l-7.982-3.985-3.79,3.79a1.09,1.09,0,0,1-1.542-1.542l4.344-4.344a1.086,1.086,0,0,1,1.26-.2l7.982,3.985,3.79-3.79a1.09,1.09,0,0,1,1.542,1.542Z" transform="translate(0.032 0.032)" fill="#125cfb"/>
  <g id="Group_53135" data-name="Group 53135" transform="translate(0 0)">
    <path id="Path_92644" data-name="Path 92644" d="M54.212,8.6H11.86V6.43A5.43,5.43,0,0,0,1,6.43V40.095a5.43,5.43,0,0,0,5.43,5.43H54.212A1.086,1.086,0,0,0,55.3,44.438V9.688A1.086,1.086,0,0,0,54.212,8.6ZM3.172,6.43a3.258,3.258,0,0,1,6.516,0V34.665a5.43,5.43,0,0,0-6.516,0ZM53.126,43.353H6.43a3.258,3.258,0,0,1-3.258-3.258V39.009a3.258,3.258,0,1,1,6.516,0,1.086,1.086,0,0,0,2.172,0V10.774H53.126Z" transform="translate(-1 -1)" fill="#00023e"/>
    <path id="Path_92645" data-name="Path 92645" d="M17.345,21.688a4.344,4.344,0,0,0,4.192-3.258h5.734a4.442,4.442,0,0,0,.825,1.629A10.86,10.86,0,0,0,20.6,29.431a4.344,4.344,0,1,0,2.172,0,8.688,8.688,0,0,1,17.267,0,4.344,4.344,0,1,0,2.172,0,10.86,10.86,0,0,0-7.385-9.372,4.442,4.442,0,0,0,.825-1.629h5.734a4.344,4.344,0,1,0,0-2.172H35.654a4.344,4.344,0,0,0-8.384,0H21.537a4.344,4.344,0,1,0-4.192,5.43Zm6.516,11.946a2.172,2.172,0,1,1-2.172-2.172A2.172,2.172,0,0,1,23.861,33.633Zm19.547,0a2.172,2.172,0,1,1-2.172-2.172A2.172,2.172,0,0,1,43.408,33.633ZM45.58,15.172a2.172,2.172,0,1,1-2.172,2.172A2.172,2.172,0,0,1,45.58,15.172Zm-14.118,0a2.172,2.172,0,1,1-2.172,2.172A2.172,2.172,0,0,1,31.462,15.172Zm-14.118,0a2.172,2.172,0,1,1-2.172,2.172A2.172,2.172,0,0,1,17.345,15.172Z" transform="translate(0.03 0.032)" fill="#00023e"/>
  </g>
</svg>
