<svg id="web-development" xmlns="http://www.w3.org/2000/svg" width="65.158" height="67.33" viewBox="0 0 65.158 67.33">
  <path id="Path_92628" data-name="Path 92628" d="M60.461,44.276a19.847,19.847,0,0,0,0-8.253l5.233-4.307a1.086,1.086,0,0,0,.25-1.381L61.6,22.811a1.086,1.086,0,0,0-1.322-.473l-6.352,2.38a20.758,20.758,0,0,0-7.142-4.135l-1.111-6.674A1.086,1.086,0,0,0,44.6,13H35.917a1.086,1.086,0,0,0-1.072.908l-1.112,6.674a20.714,20.714,0,0,0-7.141,4.135l-6.35-2.378a1.086,1.086,0,0,0-1.322.473l-4.344,7.524a1.086,1.086,0,0,0,.25,1.381l5.233,4.3a19.9,19.9,0,0,0,0,8.253l-5.228,4.3a1.086,1.086,0,0,0-.25,1.381l4.344,7.524a1.086,1.086,0,0,0,1.322.473l6.35-2.378a20.713,20.713,0,0,0,7.141,4.136L34.85,66.39a1.086,1.086,0,0,0,1.072.908H44.61a1.086,1.086,0,0,0,1.071-.908l1.113-6.673a20.742,20.742,0,0,0,7.133-4.136l6.347,2.378a1.086,1.086,0,0,0,1.322-.473l4.344-7.524a1.086,1.086,0,0,0-.25-1.381Zm-20.2,5.647a9.774,9.774,0,1,1,9.774-9.774,9.774,9.774,0,0,1-9.774,9.774Z" transform="translate(-0.931 0.032)" fill="#125cfb"/>
  <g id="Group_53134" data-name="Group 53134" transform="translate(0 0)">
    <path id="Path_92629" data-name="Path 92629" d="M53.04,1H5.258A3.258,3.258,0,0,0,2,4.258V43.353A3.258,3.258,0,0,0,5.258,46.61H53.04A3.258,3.258,0,0,0,56.3,43.353V4.258A3.258,3.258,0,0,0,53.04,1ZM5.258,3.172H53.04a1.086,1.086,0,0,1,1.086,1.086v5.43H4.172V4.258A1.086,1.086,0,0,1,5.258,3.172ZM53.04,44.438H5.258a1.086,1.086,0,0,1-1.086-1.086V11.86H54.126V43.353A1.086,1.086,0,0,1,53.04,44.438Z" transform="translate(-2 -1)" fill="#00023e"/>
    <path id="Path_92630" data-name="Path 92630" d="M7.086,7.172H8.172A1.086,1.086,0,1,0,8.172,5H7.086a1.086,1.086,0,1,0,0,2.172Z" transform="translate(-1.656 -0.656)" fill="#00023e"/>
    <path id="Path_92631" data-name="Path 92631" d="M12.086,7.172h1.086a1.086,1.086,0,1,0,0-2.172H12.086a1.086,1.086,0,1,0,0,2.172Z" transform="translate(-1.226 -0.656)" fill="#00023e"/>
    <path id="Path_92632" data-name="Path 92632" d="M17.086,7.172h1.086a1.086,1.086,0,1,0,0-2.172H17.086a1.086,1.086,0,1,0,0,2.172Z" transform="translate(-0.797 -0.656)" fill="#00023e"/>
    <path id="Path_92633" data-name="Path 92633" d="M35.086,7.172H48.118a1.086,1.086,0,0,0,0-2.172H35.086a1.086,1.086,0,1,0,0,2.172Z" transform="translate(0.751 -0.656)" fill="#00023e"/>
    <path id="Path_92634" data-name="Path 92634" d="M11.662,25.541A1.086,1.086,0,1,0,13.2,24.006L9.621,20.43,13.2,16.854a1.086,1.086,0,1,0-1.536-1.536L7.318,19.662a1.086,1.086,0,0,0,0,1.536Z" transform="translate(-1.57 0.203)" fill="#00023e"/>
    <path id="Path_92635" data-name="Path 92635" d="M20.318,25.541a1.086,1.086,0,0,0,1.536,0L26.2,21.2a1.086,1.086,0,0,0,0-1.536l-4.344-4.344a1.086,1.086,0,1,0-1.536,1.536l3.576,3.576-3.576,3.576a1.086,1.086,0,0,0,0,1.536Z" transform="translate(-0.453 0.203)" fill="#00023e"/>
    <path id="Path_92636" data-name="Path 92636" d="M14.7,25.791a1.086,1.086,0,0,0,1.4-.635l3.258-8.688a1.086,1.086,0,1,0-2.035-.76L14.068,24.4A1.086,1.086,0,0,0,14.7,25.791Z" transform="translate(-0.968 0.204)" fill="#00023e"/>
    <path id="Path_92637" data-name="Path 92637" d="M47.032,23H35.086a1.086,1.086,0,1,0,0,2.172H47.032a1.086,1.086,0,1,0,0-2.172Z" transform="translate(0.751 0.891)" fill="#00023e"/>
    <path id="Path_92638" data-name="Path 92638" d="M48.063,29H23.086a1.086,1.086,0,1,0,0,2.172H48.063a1.086,1.086,0,1,0,0-2.172Z" transform="translate(-0.281 1.407)" fill="#00023e"/>
    <path id="Path_92639" data-name="Path 92639" d="M8.086,31.172H20.032a1.086,1.086,0,1,0,0-2.172H8.086a1.086,1.086,0,1,0,0,2.172Z" transform="translate(-1.57 1.407)" fill="#00023e"/>
    <path id="Path_92640" data-name="Path 92640" d="M47.032,35H35.086a1.086,1.086,0,1,0,0,2.172H47.032a1.086,1.086,0,1,0,0-2.172Z" transform="translate(0.751 1.923)" fill="#00023e"/>
    <path id="Path_92641" data-name="Path 92641" d="M33.063,35H8.086a1.086,1.086,0,1,0,0,2.172H33.063a1.086,1.086,0,1,0,0-2.172Z" transform="translate(-1.57 1.923)" fill="#00023e"/>
  </g>
</svg>
