<svg xmlns="http://www.w3.org/2000/svg" width="48.719" height="34.717" viewBox="0 0 48.719 34.717"><defs><style>.a{fill:#36a2fe;fill-rule:evenodd;}</style></defs><path class="a" d="M16443.152,1701.189a2.585,2.585,0,1,1,0-5.17h33.086a2.585,2.585,0,1,1,0,5.17Zm8.244,16.67a2.584,2.584,0,0,1,0-5.168h24.842a2.584,2.584,0,1,1,0,5.168Zm-13.467-8.334a2.585,2.585,0,1,1,0-5.17h43.547a2.585,2.585,0,1,1,0,5.17Zm34.361,16.67a2.584,2.584,0,1,1,2.592-2.584,2.582,2.582,0,0,1-2.592,2.584Zm-5.834,1.944a2.6,2.6,0,1,1-5.2,0v-4.528a2.6,2.6,0,1,1,5.2,0Z" transform="translate(-16435.344 -1696.019)"/></svg>