<svg id="discover" xmlns="http://www.w3.org/2000/svg" xmlns:xlink="http://www.w3.org/1999/xlink" width="67.329" height="67.33" viewBox="0 0 67.329 67.33">
  <defs>
    <linearGradient id="linear-gradient" x1="0.5" x2="0.5" y2="1" gradientUnits="objectBoundingBox">
      <stop offset="0" stop-color="#125cfb"/>
      <stop offset="1" stop-color="#092e7e"/>
    </linearGradient>
  </defs>
  <g id="Group_53136" data-name="Group 53136" transform="translate(13.031 15.203)">
    <path id="Path_92646" data-name="Path 92646" d="M49.86,21.464l-4.633,3.088a15.162,15.162,0,0,1,.289,2.923c0,6.236-3.236,11.716-6.516,15.674V66.063l10.86-7.239Z" transform="translate(-10.765 -14.444)" fill="url(#linear-gradient)"/>
    <path id="Path_92647" data-name="Path 92647" d="M37.86,43.657a39.006,39.006,0,0,1-4.6,4.092,3.258,3.258,0,0,1-3.837,0c-.139-.1-1.086-.8-2.424-2V56.918l10.86,7.239Z" transform="translate(-11.797 -12.537)" fill="url(#linear-gradient)"/>
    <path id="Path_92648" data-name="Path 92648" d="M63.548,29.829,51,21.464V58.821l11.343,7.562a1.086,1.086,0,0,0,1.689-.9V30.734a1.086,1.086,0,0,0-.483-.9Z" transform="translate(-9.733 -14.444)" fill="url(#linear-gradient)"/>
    <path id="Path_92649" data-name="Path 92649" d="M26.032,45.107c-3.842-3.957-8.688-10.459-8.688-18.089,0-.076.011-.15.012-.227l-3.873,2.581a1.086,1.086,0,0,0-.483.9V65.027a1.086,1.086,0,0,0,1.689.9l11.343-7.563Z" transform="translate(-13 -13.986)" fill="url(#linear-gradient)"/>
    <circle id="Ellipse_1038" data-name="Ellipse 1038" cx="2.5" cy="2.5" r="2.5" transform="translate(16.969 10.684)" fill="url(#linear-gradient)"/>
    <path id="Path_92650" data-name="Path 92650" d="M32.032,15A13.046,13.046,0,0,0,19,28.032c0,11.283,11.887,20.058,12.393,20.426a1.086,1.086,0,0,0,1.277,0c.506-.369,12.393-9.144,12.393-20.426A13.046,13.046,0,0,0,32.032,15Zm-7.6,13.032a1.086,1.086,0,1,1-2.172,0,9.785,9.785,0,0,1,9.774-9.774,1.086,1.086,0,1,1,0,2.172,7.61,7.61,0,0,0-7.6,7.6Zm7.6,4.344a4.344,4.344,0,1,1,4.344-4.344A4.344,4.344,0,0,1,32.032,32.375Z" transform="translate(-12.484 -15)" fill="url(#linear-gradient)"/>
  </g>
  <path id="Path_92651" data-name="Path 92651" d="M33.579,1A21.7,21.7,0,0,0,15.47,34.684L1.318,48.838a1.086,1.086,0,0,0,0,1.536L5.925,54.98a1.086,1.086,0,0,0,1.536,0L21.613,40.827A21.713,21.713,0,1,0,33.579,1ZM6.693,52.677,3.621,49.605l13.15-13.151a21.889,21.889,0,0,0,3.071,3.071Zm26.886-10.41A19.547,19.547,0,1,1,53.126,22.719,19.547,19.547,0,0,1,33.579,42.267Z" transform="translate(-1 -1)" fill="#00023e"/>
  <path id="Path_92652" data-name="Path 92652" d="M32.289,6A16.289,16.289,0,1,0,48.579,22.289,16.289,16.289,0,0,0,32.289,6Zm0,30.407A14.118,14.118,0,1,1,46.407,22.289,14.118,14.118,0,0,1,32.289,36.407Z" transform="translate(0.289 -0.57)" fill="#00023e"/>
</svg>
