<svg id="networking" xmlns="http://www.w3.org/2000/svg" width="67.358" height="66.311" viewBox="0 0 67.358 66.311">
  <g id="Group_53137" data-name="Group 53137" transform="translate(19.576 18.529)">
    <path id="Path_92653" data-name="Path 92653" d="M51.475,42.352A62.3,62.3,0,0,1,51,50.122c8.278-1.539,13.505-4.775,13.505-7.77A23.932,23.932,0,0,0,45.477,18.959c3.584,4.211,6,13,6,23.393Z" transform="translate(-16.724 -18.461)" fill="#125cfb"/>
    <path id="Path_92654" data-name="Path 92654" d="M42.891,51.079a59.117,59.117,0,0,0,8.135-.553,59.117,59.117,0,0,0,.553-8.135C51.579,28.312,47,18.5,42.891,18.5A23.918,23.918,0,0,0,19,42.391C19,46.5,28.812,51.079,42.891,51.079Z" transform="translate(-19 -18.5)" fill="#125cfb"/>
    <path id="Path_92655" data-name="Path 92655" d="M50.665,50.165c-.993,5.858-2.839,10.583-5.188,13.343A23.965,23.965,0,0,0,64.008,44.977C61.248,47.326,56.522,49.171,50.665,50.165Z" transform="translate(-16.724 -16.224)" fill="#125cfb"/>
    <path id="Path_92656" data-name="Path 92656" d="M50.622,50.5a62.3,62.3,0,0,1-7.77.473c-10.394,0-19.181-2.414-23.393-6A23.932,23.932,0,0,0,42.852,64.006C45.847,64.006,49.083,58.78,50.622,50.5Z" transform="translate(-18.961 -16.224)" fill="#125cfb"/>
  </g>
  <path id="Path_92657" data-name="Path 92657" d="M36.388,21.026,42.911,15a7.618,7.618,0,1,0-1.473-1.6l-6.526,6.023a12.43,12.43,0,0,0-6.422-3.095l.445-6.223a4.371,4.371,0,1,0-2.165-.167l-.444,6.229a12.415,12.415,0,0,0-7.432,2.613l-7.14-7.739a5.981,5.981,0,1,0-1.594,1.475l7.143,7.74a12.426,12.426,0,0,0-3.213,7.3H9.536a4.344,4.344,0,1,0,0,2.172h4.553a12.429,12.429,0,0,0,3.239,7.337l-4.444,4.848a7.616,7.616,0,1,0,1.6,1.468l4.444-4.847a12.408,12.408,0,0,0,7.4,2.587l.444,6.229a4.32,4.32,0,1,0,2.165-.167l-.444-6.223a12.436,12.436,0,0,0,6.454-3.124l3.643,3.339a9.247,9.247,0,1,0,1.467-1.6l-3.641-3.338a12.4,12.4,0,0,0,2.541-6.507h4.508a5.973,5.973,0,1,0,0-2.172H38.956a12.416,12.416,0,0,0-2.567-6.543ZM47.7,3.677a5.43,5.43,0,1,1-5.43,5.43,5.43,5.43,0,0,1,5.43-5.43ZM25.979,5.849a2.172,2.172,0,1,1,2.172,2.172A2.172,2.172,0,0,1,25.979,5.849ZM3.174,7.478a3.8,3.8,0,1,1,3.8,3.8A3.8,3.8,0,0,1,3.174,7.478ZM5.346,30.826a2.172,2.172,0,1,1,2.172-2.172A2.172,2.172,0,0,1,5.346,30.826ZM8.6,53.632a5.43,5.43,0,1,1,5.43-5.43A5.43,5.43,0,0,1,8.6,53.632ZM30.323,51.46a2.172,2.172,0,1,1-2.172-2.172A2.172,2.172,0,0,1,30.323,51.46Zm22.805-4.887a7.059,7.059,0,1,1-7.059-7.059A7.059,7.059,0,0,1,53.128,46.573Zm-26.606-7.6A10.317,10.317,0,1,1,36.839,28.654,10.317,10.317,0,0,1,26.522,38.971ZM49.328,24.854a3.8,3.8,0,1,1-3.8,3.8,3.8,3.8,0,0,1,3.8-3.8Z" transform="translate(-0.974 -1.438)" fill="#00023e"/>
  <path id="Path_92658" data-name="Path 92658" d="M24.586,19a1.086,1.086,0,1,0,0,2.172,5.98,5.98,0,0,1,5.973,5.973,1.086,1.086,0,0,0,2.172,0A8.153,8.153,0,0,0,24.586,19Z" transform="translate(0.963 0.072)" fill="#00023e"/>
</svg>
