<svg xmlns="http://www.w3.org/2000/svg" width="200.828" height="52.621" viewBox="0 0 200.828 52.621"><defs><style>.a{fill:#55b0ff;}.b{fill:#464646;}</style></defs><g transform="translate(-23.322 -1968.504)"><path class="a" d="M21.895,27.634v-3.9a2.194,2.194,0,1,1,4.388,0v3.9a2.194,2.194,0,1,1-4.388,0Zm7.115-3.9A2.194,2.194,0,1,1,31.2,25.962,2.209,2.209,0,0,1,29.009,23.739ZM13.571,18.79a2.224,2.224,0,0,1,0-4.447H34.548a2.224,2.224,0,0,1,0,4.447ZM2.194,11.619a2.224,2.224,0,0,1,0-4.447H38.961a2.224,2.224,0,0,1,0,4.447ZM6.6,4.447A2.209,2.209,0,0,1,4.409,2.223,2.209,2.209,0,0,1,6.6,0H34.548a2.209,2.209,0,0,1,2.194,2.223,2.209,2.209,0,0,1-2.194,2.224Z" transform="translate(182.996 1968.504)"/><g transform="translate(23.322 1993.048)"><path class="b" d="M41.179,2187.122c0,6.514-4.184,10.332-11.287,10.332h-6.57v-20.636h6.57C36.94,2176.817,41.179,2180.608,41.179,2187.122Zm-13.561-6.374v12.8h2.134c4.661,0,7.075-2.359,7.075-6.4,0-4.072-2.443-6.4-7.075-6.4Z" transform="translate(-23.322 -2176.115)"/><path class="b" d="M195.112,2234.538v1.32h-9.63c.084,1.825,1.207,2.864,3.257,2.864a3.787,3.787,0,0,0,3.117-1.46l2.836,2.3a7.4,7.4,0,0,1-6.037,2.555,6.978,6.978,0,0,1-7.328-7.356c0-4.268,2.92-7.44,7.16-7.44C192.95,2227.322,195.112,2230.635,195.112,2234.538Zm-9.63-1.291h5.559a2.64,2.64,0,0,0-2.7-2.808A2.777,2.777,0,0,0,185.481,2233.246Z" transform="translate(-162.177 -2220.499)"/><path class="b" d="M322.3,2234.538v1.32h-9.63c.084,1.825,1.207,2.864,3.257,2.864a3.787,3.787,0,0,0,3.117-1.46l2.836,2.3a7.4,7.4,0,0,1-6.037,2.555,6.978,6.978,0,0,1-7.328-7.356c0-4.268,2.92-7.44,7.16-7.44C320.14,2227.322,322.3,2230.635,322.3,2234.538Zm-9.63-1.291h5.559a2.64,2.64,0,0,0-2.7-2.808A2.777,2.777,0,0,0,312.672,2233.246Z" transform="translate(-273.953 -2220.499)"/><path class="b" d="M457.088,2234.734c0,4.268-2.555,7.384-6.345,7.384a5.071,5.071,0,0,1-3.959-1.573v7.75h-4.127V2227.6h3.706l.2,1.6a4.96,4.96,0,0,1,4.184-1.881C454.533,2227.322,457.088,2230.467,457.088,2234.734Zm-10.3-2.021v4.015a3.274,3.274,0,0,0,2.948,1.8c1.881,0,3.2-1.46,3.2-3.79,0-2.359-1.32-3.818-3.2-3.818A3.325,3.325,0,0,0,446.784,2232.713Z" transform="translate(-391.836 -2220.499)"/><path class="b" d="M580.81,2171.924l-1.46,3.285a2.307,2.307,0,0,0-1.6-.59c-1.123,0-1.769.786-1.769,2.05v1.46h3.2v3.481h-3.2v10.753h-4.127V2181.61h-2.471v-3.481h2.471v-1.235c0-3.425,2.162-5.868,5.672-5.868A5.631,5.631,0,0,1,580.81,2171.924Z" transform="translate(-503.203 -2171.025)"/><path class="b" d="M674.036,2234.762a7.5,7.5,0,1,1-7.525-7.44A7.215,7.215,0,0,1,674.036,2234.762Zm-10.838,0a3.352,3.352,0,1,0,6.654,0c0-2.19-1.4-3.846-3.341-3.846C664.6,2230.916,663.2,2232.573,663.2,2234.762Z" transform="translate(-581.998 -2220.499)"/><path class="b" d="M810.25,2231.422h-.337a4.327,4.327,0,0,0-3.566,1.881v8.536H802.22V2227.6H805.9l.253,1.881a4.684,4.684,0,0,1,4.1-2.162Z" transform="translate(-707.823 -2220.499)"/><path class="b" d="M884.386,2229.2l.2-1.6h3.706v13.646c0,4.548-3.06,7.328-7.721,7.328a8.744,8.744,0,0,1-6.991-3.061l2.7-2.7a5.441,5.441,0,0,0,4.24,2.162,3.463,3.463,0,0,0,3.65-3.65v-1.095a4.983,4.983,0,0,1-3.959,1.572c-3.762,0-6.345-3.06-6.345-7.244s2.583-7.244,6.345-7.244A4.922,4.922,0,0,1,884.386,2229.2Zm-6.346,5.363c0,2.246,1.292,3.65,3.173,3.65a3.326,3.326,0,0,0,2.948-1.8v-3.706a3.325,3.325,0,0,0-2.948-1.8C879.332,2230.916,878.04,2232.32,878.04,2234.566Z" transform="translate(-770.531 -2220.499)"/><path class="b" d="M1028.453,2234.538v1.32h-9.631c.084,1.825,1.207,2.864,3.257,2.864a3.787,3.787,0,0,0,3.117-1.46l2.836,2.3a7.4,7.4,0,0,1-6.037,2.555,6.978,6.978,0,0,1-7.328-7.356c0-4.268,2.92-7.44,7.16-7.44C1026.291,2227.322,1028.453,2230.635,1028.453,2234.538Zm-9.631-1.291h5.559a2.64,2.64,0,0,0-2.7-2.808A2.777,2.777,0,0,0,1018.822,2233.246Z" transform="translate(-894.523 -2220.499)"/><path class="b" d="M1255.035,2194.808h-4.717l-1.348-3.2h-7.918l-1.348,3.2h-4.717l9.967-21h.112Zm-12.635-6.542h5.223l-2.611-6.177Z" transform="translate(-1088.143 -2173.469)"/><path class="b" d="M1420.457,2197.454h-4.3v-20.636h4.3Z" transform="translate(-1247.359 -2176.115)"/></g></g></svg>