<svg xmlns="http://www.w3.org/2000/svg" width="11.3" height="15.189" viewBox="0 0 11.3 15.189">
  <g id="pin_2_" data-name="pin (2)" transform="translate(-47.93 0.15)">
    <g id="Group_53191" data-name="Group 53191" transform="translate(48.08)">
      <g id="Group_53190" data-name="Group 53190" transform="translate(0)">
        <path id="Path_92664" data-name="Path 92664" d="M53.58,0a5.506,5.506,0,0,0-5.5,5.5,6.346,6.346,0,0,0,.467,2.118,8.87,8.87,0,0,0,.636,1.189l3.771,5.714a.717.717,0,0,0,1.253,0l3.771-5.714a8.833,8.833,0,0,0,.636-1.189A6.344,6.344,0,0,0,59.08,5.5,5.506,5.506,0,0,0,53.58,0Zm4.437,7.366a8.126,8.126,0,0,1-.579,1.084l-3.771,5.714c-.074.113-.1.113-.172,0L49.723,8.45a8.131,8.131,0,0,1-.579-1.084A5.76,5.76,0,0,1,48.727,5.5a4.853,4.853,0,0,1,9.706,0A5.765,5.765,0,0,1,58.017,7.366Z" transform="translate(-48.08)" fill="#a7a7a7" stroke="#a7a7a7" stroke-width="0.3"/>
        <path id="Path_92665" data-name="Path 92665" d="M114.992,64.008A2.912,2.912,0,1,0,117.9,66.92,2.915,2.915,0,0,0,114.992,64.008Zm0,5.177a2.265,2.265,0,1,1,2.265-2.265A2.267,2.267,0,0,1,114.992,69.185Z" transform="translate(-109.492 -61.419)" fill="#a7a7a7" stroke="#a7a7a7" stroke-width="0.3"/>
      </g>
    </g>
  </g>
</svg>
