<svg xmlns="http://www.w3.org/2000/svg" width="14.967" height="11.3" viewBox="0 0 14.967 11.3">
  <g id="envelope" transform="translate(0.15 -63.85)">
    <g id="Group_53192" data-name="Group 53192" transform="translate(0 64)">
      <path id="Path_92666" data-name="Path 92666" d="M13.444,64H1.222A1.223,1.223,0,0,0,0,65.222v8.556A1.223,1.223,0,0,0,1.222,75H13.444a1.223,1.223,0,0,0,1.222-1.222V65.222A1.223,1.223,0,0,0,13.444,64Zm-12.222.611H13.444a.581.581,0,0,1,.127.026c-1.058.968-4.567,4.178-5.795,5.285a.613.613,0,0,1-.887,0C5.662,68.815,2.153,65.6,1.1,64.637A.584.584,0,0,1,1.222,64.611ZM.611,73.778V65.222a.59.59,0,0,1,.034-.169c.81.741,3.258,2.981,4.845,4.424C3.909,70.837,1.46,73.159.643,73.937A.589.589,0,0,1,.611,73.778Zm12.833.611H1.222a.584.584,0,0,1-.138-.028c.844-.8,3.308-3.139,4.862-4.469l.534.483a1.221,1.221,0,0,0,1.705,0l.534-.483c1.555,1.33,4.019,3.665,4.862,4.469A.583.583,0,0,1,13.444,74.389Zm.611-.611a.59.59,0,0,1-.032.159c-.817-.779-3.265-3.1-4.847-4.459,1.587-1.444,4.035-3.683,4.845-4.425a.59.59,0,0,1,.034.169Z" transform="translate(0 -64)" fill="#a7a7a7" stroke="#a7a7a7" stroke-width="0.3"/>
    </g>
  </g>
</svg>
