<svg xmlns="http://www.w3.org/2000/svg" width="51.514" height="38.18" viewBox="0 0 51.514 38.18"><defs><style>.a{fill:#fff;}</style></defs><path class="a" d="M81.987,49.2q-10.1,4.969-10.1,11.678a11.153,11.153,0,0,1,7.123,3.52,10.37,10.37,0,0,1,.083,14.121,9.049,9.049,0,0,1-6.874,2.9,10.48,10.48,0,0,1-8.034-3.768,13.185,13.185,0,0,1-3.4-9.152q0-16.15,18.055-25.26Zm-30.312,0Q41.488,54.167,41.488,60.875a11.228,11.228,0,0,1,7.205,3.52,10.314,10.314,0,0,1,.041,14.121,9.18,9.18,0,0,1-6.916,2.9,10.357,10.357,0,0,1-7.992-3.768,13.28,13.28,0,0,1-3.354-9.152q0-16.15,17.972-25.26Z" transform="translate(-30.473 -43.234)"/></svg>