<?xml version="1.0" encoding="UTF-8"?>
<svg width="140px" height="41px" viewBox="0 0 798 202" version="1.1" xmlns="http://www.w3.org/2000/svg" xmlns:xlink="http://www.w3.org/1999/xlink">
    <!-- Generator: Sketch 55.1 (78136) - https://sketchapp.com -->
    <title>UBISEND-RED2-01</title>
    <desc>Created with Sketch.</desc>
    <g id="Symbols" stroke="none" stroke-width="1" fill="none" fill-rule="evenodd">
        <g id="Ubisend-Logo" transform="translate(-1.000000, 0.000000)" fill-rule="nonzero">
            <g id="UBISEND-RED2-01">
                <g id="Group_462" transform="translate(0.651000, 23.281000)" fill="#000000">
                    <path d="M28.9,51.4 L28.9,122.3 C28.9,142.8 37,153 53.1,153 C69.2,153 77.3,142.8 77.3,122.3 L77.3,51.4 L105.8,51.4 L105.8,122.9 C105.8,132.8 104.6,141.3 102.1,148.5 C99.5,155.2 95.3,161.2 89.8,165.9 C80.2,174.3 67.9,178.5 53,178.5 C38.2,178.5 26,174.3 16.4,165.9 C10.8,161.2 6.5,155.3 3.9,148.5 C1.5,142.8 0.3,134.2 0.4,122.9 L0.4,51.4 L28.9,51.4 Z" id="Path_1106"></path>
                    <path d="M150.3,0.8 L150.3,65.8 C161.7,54 174.6,48 189.1,48 C205.7,48 219.6,54.2 230.7,66.6 C241.8,78.9 247.3,94.3 247.3,112.7 C247.3,131.7 241.7,147.4 230.6,159.9 C219.5,172.2 205.5,178.4 188.6,178.4 C174.3,178.4 161.6,172.9 150.3,161.9 L150.3,174.8 L121.8,174.8 L121.8,0.8 L150.3,0.8 Z M218.2,114.1 C218.2,102.3 215,92.6 208.6,85.2 C202.1,77.6 193.9,73.8 184.1,73.8 C173.6,73.8 165.1,77.5 158.5,84.8 C152,92.1 148.7,101.5 148.7,113.2 C148.7,125.2 151.9,134.8 158.3,142 C164.7,149.4 173.2,153 183.7,153 C193.1,153.2 202.2,149.2 208.3,142 C214.9,134.5 218.2,125.2 218.2,114.1 Z" id="Path_1107"></path>
                    <polygon id="Path_1108" points="289 51.4 289 174.9 260.5 174.9 260.5 51.4"></polygon>
                    <path d="M397.1,72.5 L369.4,85 C365,77.4 359.6,73.6 353.2,73.6 C350.3,73.5 347.6,74.4 345.3,76.2 C343.2,77.8 342,80.2 342,82.9 C342,87.6 348.4,92.3 361.3,97 C379.1,103.5 391,109.5 397.2,115 C403.4,120.5 406.4,127.9 406.4,137.2 C406.4,149.1 401.2,159.1 390.9,167.1 C380.9,174.7 368.8,178.5 354.6,178.5 C330.3,178.5 313.1,168.4 303,148.2 L331.6,136.9 C335.6,142.8 338.6,146.6 340.7,148.2 C344.9,151.4 350,153.1 355.3,153 C366.6,153 372.3,148.6 372.3,139.8 C372.3,134.7 367.9,130 359.2,125.6 C355.8,124.2 352.5,122.8 349.1,121.4 C345.7,120 342.3,118.7 338.8,117.2 C329.1,113.1 322.2,109.1 318.3,105 C313.2,99.8 310.7,93.2 310.7,85.1 C310.7,74.4 315,65.5 323.6,58.5 C332.4,51.5 343.1,48 355.7,48 C374.3,48 388.1,56.2 397.1,72.5 Z" id="Path_1109"></path>
                    <path d="M534.9,119.9 L446.4,119.9 C447.2,130 450.5,138.1 456.3,144.1 C462.1,150 469.6,153 478.7,153 C485.8,153 491.7,151.3 496.3,147.9 C500.9,144.5 506.1,138.3 511.9,129.1 L536,142.5 C532.7,148.3 528.7,153.8 524.2,158.8 C520.3,163.1 515.8,166.9 510.9,170 C506.2,172.9 501,175.1 495.6,176.4 C489.7,177.8 483.7,178.5 477.7,178.4 C459.3,178.4 444.5,172.5 433.3,160.7 C422.1,148.8 416.6,133 416.6,113.3 C416.6,93.8 422,78 432.8,65.9 C443.7,54 458.2,48 476.2,48 C494.4,48 508.7,53.8 519.3,65.4 C529.8,76.9 535,92.8 535,113.2 L534.9,119.9 Z M505.6,96.6 C501.6,81.4 492,73.8 476.8,73.8 C473.5,73.8 470.2,74.3 467,75.4 C464,76.4 461.2,78 458.7,80 C456.2,82 454,84.4 452.3,87.2 C450.5,90.1 449.1,93.3 448.2,96.7 L505.6,96.7 L505.6,96.6 Z" id="Path_1110"></path>
                    <path d="M552.1,51.4 L580.8,51.4 L580.8,62.8 C590.8,52.9 602,48 614.5,48 C628.9,48 640.1,52.5 648.1,61.6 C655,69.3 658.5,81.8 658.5,99.2 L658.5,174.9 L629.8,174.9 L629.8,105.9 C629.8,93.7 628.1,85.3 624.7,80.7 C621.4,76 615.4,73.6 606.7,73.6 C597.2,73.6 590.5,76.7 586.5,83 C582.6,89.2 580.7,99.9 580.7,115.3 L580.7,174.9 L552,174.9 L552,51.4 L552.1,51.4 Z" id="Path_1111"></path>
                    <path d="M769.5,0.8 L798.1,0.8 L798.1,174.9 L769.5,174.9 L769.5,162 C758.3,173 745.5,178.5 731.3,178.5 C714.4,178.5 700.4,172.3 689.2,160 C678.1,147.4 672.6,131.7 672.6,112.8 C672.6,94.4 678.1,79 689.2,66.7 C700.2,54.3 714,48.1 730.7,48.1 C745.2,48.1 758.1,54 769.5,65.8 L769.5,0.8 Z M701.8,112.8 C701.8,124.6 705,134.3 711.3,141.7 C717.3,149 726.4,153.2 735.9,153 C746.5,153 755,149.4 761.5,142.1 C768,134.6 771.3,125 771.3,113.4 C771.3,101.8 768,92.3 761.5,84.8 C755,77.4 746.5,73.8 736.1,73.8 C726.6,73.6 717.6,77.7 711.5,85 C705,92.4 701.8,101.7 701.8,112.8 Z" id="Path_1112"></path>
                </g>
                <circle id="Ellipse_136" fill="#B1479C" cx="276" cy="27" r="27"></circle>
            </g>
        </g>
    </g>
</svg>
